<svg width="29" height="29" viewBox="0 0 29 29" fill="none" xmlns="http://www.w3.org/2000/svg">
<g clip-path="url(#clip0_6_467)">
<path fill-rule="evenodd" clip-rule="evenodd" d="M4.89664 8.03619H26.8435C27.1654 8.03619 27.4741 7.90833 27.7017 7.68073C27.9293 7.45313 28.0572 7.14442 28.0572 6.82254C28.0572 6.50066 27.9293 6.19195 27.7017 5.96435C27.4741 5.73675 27.1654 5.60889 26.8435 5.60889H4.89664C4.57476 5.60889 4.26606 5.73675 4.03845 5.96435C3.81085 6.19195 3.68298 6.50066 3.68298 6.82254C3.68298 7.14442 3.81085 7.45313 4.03845 7.68073C4.26606 7.90833 4.57476 8.03619 4.89664 8.03619ZM26.8435 13.6999H9.54897C9.22709 13.6999 8.91839 13.8278 8.69079 14.0554C8.46318 14.283 8.33532 14.5917 8.33532 14.9136C8.33532 15.2354 8.46318 15.5441 8.69079 15.7718C8.91839 15.9994 9.22709 16.1272 9.54897 16.1272H26.8435C27.1654 16.1272 27.4741 15.9994 27.7017 15.7718C27.9293 15.5441 28.0572 15.2354 28.0572 14.9136C28.0572 14.5917 27.9293 14.283 27.7017 14.0554C27.4741 13.8278 27.1654 13.6999 26.8435 13.6999ZM26.8435 21.7909H4.89664C4.57476 21.7909 4.26606 21.9188 4.03845 22.1464C3.81085 22.374 3.68298 22.6827 3.68298 23.0046C3.68298 23.3265 3.81085 23.6352 4.03845 23.8628C4.26606 24.0904 4.57476 24.2182 4.89664 24.2182H26.8435C27.1654 24.2182 27.4741 24.0904 27.7017 23.8628C27.9293 23.6352 28.0572 23.3265 28.0572 23.0046C28.0572 22.6827 27.9293 22.374 27.7017 22.1464C27.4741 21.9188 27.1654 21.7909 26.8435 21.7909Z" fill="#1F2148"/>
</g>
<defs>
<clipPath id="clip0_6_467">
<rect width="26.7004" height="18.6094" fill="white" transform="translate(2.01447 5.60913)"/>
</clipPath>
</defs>
</svg>
